<svg version="1.1" id="Layer_1" xmlns="http://www.w3.org/2000/svg" xmlns:xlink="http://www.w3.org/1999/xlink"
	viewBox="300 350 500 500" enable-background="new 0 0 1140 1140" xml:space="preserve">
<path fill="none" opacity="1.000000" stroke="none" 
	d="
M534.000000,1141.000000 
	C356.000000,1141.000000 178.500000,1141.000000 1.000000,1141.000000 
	C1.000000,761.000000 1.000000,381.000000 1.000000,1.000000 
	C381.000000,1.000000 761.000000,1.000000 1141.000000,1.000000 
	C1141.000000,381.000000 1141.000000,761.000000 1141.000000,1141.000000 
	C938.833313,1141.000000 736.666687,1141.000000 534.000000,1141.000000 
M506.570068,738.961914 
	C506.734955,738.653931 506.899811,738.345947 507.006805,738.008484 
	C507.006805,738.008484 507.037628,738.065735 507.579620,737.970642 
	C507.741882,737.660583 507.904175,737.350525 508.007690,737.008057 
	C508.007690,737.008057 508.040649,737.066528 508.580811,736.970337 
	C508.742798,736.661255 508.904755,736.352112 509.006409,736.009277 
	C509.006409,736.009277 509.043274,736.067749 509.585968,735.978516 
	C509.746490,735.668457 509.907043,735.358459 510.004700,735.008301 
	C510.004700,735.008301 510.048676,735.068604 510.591919,734.983887 
	C510.750671,734.673462 510.909424,734.363098 511.003296,734.006409 
	C511.003296,734.006409 511.052887,734.069031 511.595673,733.988220 
	C511.753235,733.678467 511.910797,733.368713 512.000183,733.004456 
	C512.000183,733.004456 512.058838,733.069580 512.603333,732.994019 
	C512.759033,732.683289 512.914734,732.372559 513.112244,732.115906 
	C513.112244,732.115906 513.165955,732.073730 513.781982,731.876282 
	C515.211914,730.302612 516.641907,728.729004 518.117798,727.117554 
	C518.117798,727.117554 518.077393,727.073853 518.625793,727.007202 
	C518.776733,726.693298 518.927673,726.379395 519.010803,725.998596 
	C519.010803,725.998596 519.065491,726.075684 519.608459,725.999756 
	C519.765381,725.690186 519.922363,725.380676 520.088745,725.071594 
	C520.088745,725.071594 520.103394,725.084106 520.702087,724.981140 
	C521.167114,724.350830 521.632080,723.720581 522.099670,723.057251 
	C522.099670,723.057251 522.068787,723.067749 522.686829,722.841187 
	C523.145020,721.912231 523.603271,720.983215 524.054260,720.008789 
	C524.054260,720.008789 524.035217,720.048767 524.558289,719.937256 
	C524.721191,719.636780 524.884094,719.336304 524.995667,719.008423 
	C524.995667,719.008423 525.036011,719.051514 525.487427,718.998657 
	C525.795349,718.868286 525.960815,718.636536 526.590698,717.965454 
	C532.250183,711.957458 537.971252,706.005981 543.553711,699.927246 
	C550.702942,692.142395 547.817810,683.110046 537.279663,681.052856 
	C531.266296,679.879028 525.045288,679.809143 518.952332,678.986023 
	C515.962708,678.582275 513.051819,677.595154 510.199677,676.154968 
	C511.491425,672.778564 512.637390,669.337585 514.099731,666.036743 
	C520.914673,650.654053 527.907593,635.349792 534.667236,619.943054 
	C544.883911,596.657043 554.971558,573.314331 565.087952,549.984497 
	C567.839294,543.639404 570.497009,537.253601 573.851501,530.891113 
	C574.539612,531.632568 575.227661,532.374084 575.999939,533.586365 
	C575.999939,533.586365 576.178284,534.030212 576.079590,534.772949 
	C579.502441,542.456482 582.798279,550.199829 586.383484,557.806824 
	C590.072144,565.633240 594.043091,573.326538 597.968140,581.068237 
	C597.968140,581.068237 597.886719,581.094360 597.932068,581.813477 
	C598.623840,583.236572 599.315613,584.659607 600.017090,586.708191 
	C600.343201,587.186401 600.669312,587.664673 600.985352,588.870117 
	C601.970947,591.068970 602.920227,593.284973 603.948181,595.463806 
	C609.238708,606.678528 614.549561,617.883606 619.989807,629.538757 
	C619.989807,629.538757 620.114990,629.988708 619.967102,630.724976 
	C621.592163,633.864685 623.217285,637.004333 624.949585,640.544128 
	C624.949585,640.544128 625.090698,640.933594 624.968811,641.685730 
	C626.956055,645.851562 628.943298,650.017395 630.939636,654.885620 
	C631.916077,656.637878 632.892517,658.390198 633.963318,660.546021 
	C633.963318,660.546021 634.089355,660.940796 633.996460,661.472290 
	C634.267883,661.678345 634.539307,661.884338 634.962708,662.493347 
	C634.962708,662.493347 635.106750,662.899231 634.963257,663.627136 
	C635.947388,665.430176 636.931458,667.233276 637.946838,669.037598 
	C637.946838,669.037598 637.937256,669.067383 637.936401,669.818542 
	C639.595154,673.229553 641.253967,676.640625 642.966614,679.999268 
	C642.966614,679.999268 642.925903,680.056274 642.933960,680.769043 
	C643.585815,681.890442 644.237610,683.011841 645.261597,684.740112 
	C647.495605,688.844116 649.729614,692.948181 651.997009,697.002197 
	C651.997009,697.002197 651.944336,697.031555 652.017517,697.794922 
	C655.307739,705.518555 658.420471,713.325073 661.971008,720.927063 
	C663.497314,724.194946 665.931946,727.038574 667.978577,730.011536 
	C667.978577,730.011536 667.918335,730.043213 668.015564,730.695068 
	C668.051453,731.132324 668.087341,731.569519 668.039551,731.830933 
	C668.039551,731.830933 667.862610,731.912292 666.942871,731.906189 
	C632.202881,732.233643 597.454895,732.230286 562.727234,733.068726 
	C550.634888,733.360718 538.906860,737.236206 531.223755,747.314331 
	C524.304993,756.389893 518.093323,766.173462 512.838562,776.302856 
	C507.191864,787.187927 503.017792,798.837646 498.253448,810.175598 
	C498.166504,810.382446 498.732330,810.863647 499.623169,811.741821 
	C504.777588,811.848633 509.932098,812.051331 515.086426,812.046997 
	C554.051453,812.014038 593.016479,811.940491 632.913574,812.016113 
	C639.885681,812.018921 646.857727,812.035217 653.829834,812.022339 
	C685.864990,811.963196 717.900085,811.895935 750.876526,811.970520 
	C762.676697,811.965149 774.476990,811.992249 786.276794,811.921265 
	C788.154907,811.909973 790.030334,811.458008 792.507751,810.887207 
	C793.478455,808.739441 797.930725,808.400574 795.941040,803.669861 
	C795.892273,803.031799 795.843567,802.393677 795.848877,801.402588 
	C795.721985,801.158081 795.522766,801.059998 795.169495,800.841125 
	C795.169495,800.841125 794.900574,800.765564 794.949768,800.091980 
	C794.344849,798.742432 793.739929,797.392883 792.999573,795.542786 
	C792.939453,795.380676 792.879395,795.218567 792.977417,794.305725 
	C789.996582,788.508301 787.015747,782.710876 784.031311,776.982666 
	C784.031311,776.982666 784.100525,776.981750 783.975464,776.258240 
	C782.741943,774.555420 781.508484,772.852661 779.920593,770.461914 
	C778.545593,767.268494 777.170654,764.075012 775.870728,760.440918 
	C775.711914,760.143250 775.464233,760.007141 774.930237,759.487976 
	C774.612061,759.286560 774.293945,759.085205 773.966980,758.095154 
	C772.057983,753.400696 770.148926,748.706299 768.025085,743.272034 
	C766.477417,739.757629 765.027161,736.196472 763.366272,732.736450 
	C752.943420,711.022339 742.519531,689.308472 731.972046,667.654785 
	C730.315613,664.254150 728.029053,661.160461 726.023499,657.988831 
	C726.023499,657.988831 726.087891,657.981384 725.971924,657.296997 
	C725.329407,656.177612 724.686890,655.058167 724.004150,653.997559 
	C724.004150,653.997559 724.061279,653.955017 723.971252,653.274414 
	C723.328979,652.165405 722.686707,651.056396 722.000000,650.000000 
	C722.000000,650.000000 722.050903,649.952942 721.964111,649.214417 
	C716.708679,637.815491 711.453308,626.416504 706.199219,614.858887 
	C706.199219,614.858887 706.040588,614.854065 706.037048,614.166504 
	C705.385376,613.089355 704.733765,612.012207 704.000061,610.974915 
	C704.000061,610.974915 704.087280,610.953430 704.028687,610.232300 
	C703.345459,609.054565 702.662231,607.876770 702.009521,606.426575 
	C702.009521,606.426575 701.856750,606.198853 701.923340,605.604126 
	C701.618896,605.379211 701.314392,605.154358 701.015381,604.991943 
	C701.015381,604.991943 701.071411,604.963867 701.020874,604.215271 
	C699.034119,600.449463 697.047363,596.683594 695.038818,592.982727 
	C695.038818,592.982727 695.102234,592.956787 695.026733,592.216431 
	C693.689026,589.755981 692.351379,587.295532 690.991089,584.460144 
	C690.991089,584.460144 690.850220,584.111877 690.964417,583.529297 
	C690.648804,583.324829 690.333191,583.120422 690.022522,582.982483 
	C690.022522,582.982483 690.087097,582.966003 689.992676,582.200073 
	C681.349365,564.451050 672.706055,546.701965 663.984070,528.490112 
	C663.984070,528.490112 663.832520,528.045898 663.987854,527.296265 
	C661.677429,523.173462 659.367004,519.050659 656.788818,514.274170 
	C655.798218,512.507629 654.807617,510.741058 653.960754,508.257507 
	C653.320435,506.810760 652.680115,505.364044 652.027710,503.981018 
	C652.027710,503.981018 652.091736,503.970612 652.002441,503.200928 
	C649.994141,499.528137 647.985901,495.855377 645.310608,491.796600 
	C643.816162,488.193756 642.321655,484.590912 640.961121,480.238617 
	C636.274780,470.014648 631.651733,459.761078 626.887573,449.573517 
	C619.406250,433.575928 611.959351,417.560059 604.260681,401.666809 
	C594.713013,381.956696 584.937683,362.356720 575.222107,342.728241 
	C573.879211,340.015137 572.315125,337.411469 570.740234,334.180908 
	C570.104065,333.184906 569.467957,332.188873 568.858948,330.426605 
	C563.671631,325.411987 558.419800,325.898499 554.579895,331.915253 
	C553.331055,333.871979 552.539856,336.120697 551.522156,338.241974 
	C551.522156,338.241974 551.504517,338.239044 550.934753,338.721405 
	C548.520630,344.046448 546.158447,349.395721 543.682739,354.691956 
	C535.976868,371.176910 528.228027,387.641815 520.175232,404.227600 
	C519.970032,404.415436 519.948120,404.623260 519.954651,405.360687 
	C519.918030,405.534393 519.881470,405.708099 519.191223,406.243256 
	C516.439819,412.959259 513.822632,419.734161 510.906982,426.378113 
	C505.982391,437.599670 500.868805,448.738281 495.190216,460.235199 
	C478.853058,496.765259 462.515900,533.295288 446.174622,569.875916 
	C446.174622,569.875916 446.225372,569.887329 445.939362,570.454224 
	C445.688568,571.620178 445.437805,572.786072 445.022614,574.695007 
	C443.969879,577.435608 442.917175,580.176270 441.127380,582.952576 
	C440.577759,583.278992 439.730164,583.475159 439.522095,583.950928 
	C434.289825,595.917236 429.124817,607.913025 423.828400,619.853027 
	C423.828400,619.853027 423.757996,619.962097 423.131592,620.316589 
	C418.752594,630.038757 414.248413,639.707031 410.028168,649.497681 
	C405.404022,660.225281 401.248199,671.157715 396.501526,681.828796 
	C392.586731,690.629822 387.912476,699.090881 383.921570,707.860413 
	C376.880402,723.332275 370.057220,738.904236 363.228821,754.471985 
	C356.407990,770.022339 349.606110,785.582214 342.979218,801.215576 
	C340.733398,806.513733 344.719177,812.020386 350.376892,812.020020 
	C377.361267,812.018127 404.346832,811.904114 431.328979,812.152283 
	C436.187683,812.196960 438.497986,810.071777 440.590515,805.836670 
	C441.397980,804.905945 442.205444,803.975220 443.532440,802.875488 
	C443.719482,802.572571 443.906525,802.269653 444.553314,801.855469 
	C444.839111,801.669189 444.996552,801.406067 445.646576,800.816650 
	C447.787689,798.553040 449.928772,796.289368 452.684113,793.771912 
	C456.052307,790.181580 459.420502,786.591187 463.032776,782.461060 
	C463.354065,782.241394 463.675323,782.021790 464.659332,781.747742 
	C470.466949,775.495911 476.274597,769.244080 482.662231,762.766907 
	C483.928741,761.449341 485.195251,760.131836 486.727661,758.736877 
	C486.727661,758.736877 486.811554,758.472961 487.371979,758.116882 
	C492.307434,753.090332 497.242859,748.063782 502.662842,742.909668 
	C502.797058,742.615601 502.931244,742.321533 503.008270,742.007080 
	C503.008270,742.007080 503.029327,742.064087 503.571228,741.961487 
	C503.735413,741.650818 503.899567,741.340149 504.006989,741.007263 
	C504.006989,741.007263 504.029724,741.063782 504.571198,740.961548 
	C504.735321,740.651306 504.899445,740.341003 505.006989,740.007141 
	C505.006989,740.007141 505.030914,740.063599 505.571533,739.961121 
	C505.735474,739.651245 505.899414,739.341309 506.006927,739.007080 
	C506.006927,739.007080 506.031586,739.063416 506.570068,738.961914 
z"/>
<path fill="#484FE6" opacity="1.000000" stroke="none" 
	d="
M795.762756,804.622131 
	C797.930725,808.400574 793.478455,808.739441 791.750244,810.988953 
	C777.289429,811.141968 763.585999,811.193237 749.422119,811.220215 
	C740.287537,811.126526 731.613464,811.057190 722.584473,810.791016 
	C720.260010,810.404236 718.290833,810.054688 716.320801,810.049255 
	C697.704529,809.997498 679.086975,810.111145 660.472229,809.928955 
	C654.947815,809.874939 649.431091,809.036621 643.910828,808.557739 
	C643.786255,808.089966 643.661621,807.622192 643.537048,807.154419 
	C646.181458,805.602295 648.825867,804.050232 651.789917,802.310547 
	C646.638306,795.984985 647.171570,789.318420 649.525146,782.436584 
	C649.878113,781.404419 650.106934,779.759827 649.554504,779.083008 
	C646.598511,775.461121 648.175049,772.867004 650.970337,770.227356 
	C651.611267,769.622192 651.686096,768.417603 652.412109,767.396362 
	C658.875610,767.522400 663.620056,765.098450 667.277710,760.263733 
	C674.291138,750.993286 674.506653,742.373718 667.862610,731.912292 
	C667.862610,731.912292 668.039551,731.830933 668.294434,731.828979 
	C668.338989,731.232483 668.128662,730.637817 667.918335,730.043213 
	C667.918335,730.043213 667.978577,730.011536 667.972656,729.635010 
	C666.680969,725.726990 665.540588,722.133667 664.071594,718.680176 
	C662.327820,714.580566 660.500061,710.490784 658.336975,706.603516 
	C656.477478,703.261841 654.095337,700.210999 651.944336,697.031555 
	C651.944336,697.031555 651.997009,697.002197 652.026123,696.618652 
	C652.076660,693.318909 653.062683,689.943176 651.934265,687.574890 
	C648.844482,681.089844 646.156921,674.743530 646.937988,667.329590 
	C647.250671,664.361206 647.169495,661.319397 643.649780,659.679871 
	C642.711121,659.242615 642.326965,657.614990 641.688232,656.533875 
	C641.357239,656.906006 641.026245,657.278198 640.695251,657.650391 
	C639.205200,656.611938 637.715149,655.573547 636.225098,654.535095 
	C637.164368,653.297974 638.103699,652.060852 639.682068,649.982117 
	C639.099487,649.322937 637.799072,648.016296 636.700989,646.557373 
	C635.809082,645.372375 635.159912,644.004700 634.403137,642.718018 
	C635.987183,642.000610 637.762085,640.416199 639.122192,640.715759 
	C645.034790,642.017883 647.279846,640.164612 646.941406,634.087952 
	C646.742798,630.522156 647.268127,626.921204 647.303772,623.334412 
	C647.315735,622.126587 647.175842,620.130859 646.503479,619.827148 
	C641.198120,617.429993 644.197388,614.082764 644.957703,609.846680 
	C648.115906,614.311951 650.681213,617.939087 653.246582,621.566223 
	C653.756348,621.338684 654.266174,621.111145 654.775940,620.883667 
	C654.431641,619.469543 654.254150,617.987000 653.708069,616.655579 
	C652.577759,613.899841 650.833374,611.331909 650.104187,608.490906 
	C649.028137,604.298340 647.776733,601.285156 643.866516,603.733154 
	C642.869141,599.116821 642.053650,594.529114 640.825806,590.054504 
	C640.325684,588.231812 638.738525,586.736572 637.978088,584.950806 
	C635.574524,579.306458 633.222656,573.634827 631.069031,567.891785 
	C630.118225,565.356201 629.692932,562.623474 629.274048,560.225220 
	C630.161316,561.430237 630.803406,562.390259 631.439697,563.630981 
	C642.181335,586.364685 652.908875,608.827209 663.683289,631.267212 
	C670.575134,645.621094 677.536133,659.941833 684.499634,674.606873 
	C684.741638,675.321228 684.950073,675.706116 685.208496,676.434204 
	C687.098267,680.263733 688.938171,683.750000 690.849121,687.191162 
	C690.920166,687.146118 690.829407,687.004395 690.784790,687.348022 
	C691.142395,688.487061 691.544556,689.282471 691.952271,690.045166 
	C691.957825,690.012390 691.898865,690.042969 691.936523,690.416748 
	C693.281006,693.256714 694.587769,695.722900 695.919434,698.547607 
	C699.277771,705.963440 702.467529,713.093018 705.975098,720.062683 
	C712.991516,734.004761 719.154419,748.516418 727.525757,761.605835 
	C742.515259,785.043640 765.561340,797.594910 791.844604,804.752930 
	C793.049438,805.080994 794.452209,804.682312 795.762756,804.622131 
z"/>
<path fill="#74EEF0" opacity="1.000000" stroke="none" 
	d="
M631.445557,563.350281 
	C630.803406,562.390259 630.161316,561.430237 629.222412,559.868042 
	C614.978149,530.007874 600.827515,500.844482 587.144897,471.463165 
	C575.383850,446.208374 560.728455,422.090240 555.848206,393.712646 
	C555.821533,392.909210 555.740051,392.451996 555.759888,391.540894 
	C555.294312,372.315155 561.525757,355.109253 568.179504,338.018280 
	C568.664307,336.772980 569.943542,335.836945 570.853455,334.757141 
	C572.315125,337.411469 573.879211,340.015137 575.222107,342.728241 
	C584.937683,362.356720 594.713013,381.956696 604.260681,401.666809 
	C611.959351,417.560059 619.406250,433.575928 626.887573,449.573517 
	C631.651733,459.761078 636.274780,470.014648 640.573608,480.548401 
	C634.868530,480.245728 636.142944,483.841705 636.529663,486.720490 
	C636.901672,489.489166 637.868835,492.222107 637.916687,494.982147 
	C638.089417,504.957458 637.686462,514.949036 638.069336,524.912598 
	C638.451965,534.869568 635.026306,544.308594 634.756042,554.177368 
	C634.671570,557.262939 632.604919,560.294189 631.445557,563.350281 
z"/>
<path fill="#50ECED" opacity="1.000000" stroke="none" 
	d="
M795.851929,804.145996 
	C794.452209,804.682312 793.049438,805.080994 791.844604,804.752930 
	C765.561340,797.594910 742.515259,785.043640 727.525757,761.605835 
	C719.154419,748.516418 712.991516,734.004761 705.975098,720.062683 
	C702.467529,713.093018 699.277771,705.963440 695.926514,698.159607 
	C694.572083,694.956360 693.235474,692.499695 691.898865,690.042969 
	C691.898865,690.042969 691.957825,690.012390 691.934570,689.708130 
	C691.550659,688.604065 691.190002,687.804260 690.829407,687.004395 
	C690.829407,687.004395 690.920166,687.146118 690.895630,686.795532 
	C691.146118,682.684753 691.421082,678.924561 691.628296,676.091003 
	C688.519104,676.091003 686.838867,676.091003 685.158569,676.091003 
	C684.950073,675.706116 684.741638,675.321228 684.833618,674.407776 
	C689.814697,669.977173 691.754578,664.717163 692.703430,658.888245 
	C690.755493,660.290527 689.595520,662.227112 688.082092,663.830078 
	C686.862000,665.122437 684.348694,667.203796 683.902832,666.879761 
	C681.598755,665.205200 680.132629,662.788757 682.108765,659.270081 
	C683.346680,660.379517 684.317627,661.249695 685.264343,662.098145 
	C689.311523,658.464539 689.260498,653.926575 688.969543,649.411926 
	C688.570435,643.218018 691.307068,638.597656 695.855103,634.787048 
	C698.593750,632.492493 698.964539,627.969971 696.109131,625.643677 
	C692.757690,622.913147 691.325623,620.834290 696.246277,618.385742 
	C696.958191,618.031494 697.439575,616.445618 697.345276,615.497559 
	C697.277344,614.815308 696.015137,613.659546 695.388367,613.723389 
	C691.888062,614.080200 691.268433,611.983948 690.739685,609.242859 
	C690.533325,608.173279 689.336487,606.884277 688.282593,606.459229 
	C683.565857,604.557373 682.998108,599.343323 683.655396,596.551880 
	C684.458496,593.141113 685.754761,588.097839 690.906372,587.417969 
	C692.335938,589.510864 693.719116,591.233826 695.102234,592.956787 
	C695.102234,592.956787 695.038818,592.982727 695.012939,593.360352 
	C695.284607,598.417847 696.520691,602.589111 701.071411,604.963867 
	C701.071411,604.963867 701.015381,604.991943 701.131836,605.185547 
	C701.451111,605.652405 701.653931,605.925598 701.856750,606.198853 
	C701.856750,606.198853 702.009521,606.426575 701.948853,606.948120 
	C702.621216,608.630920 703.354248,609.792175 704.087280,610.953430 
	C704.087280,610.953430 704.000061,610.974915 703.977356,611.312988 
	C704.649963,612.718689 705.345276,613.786377 706.040588,614.854065 
	C706.040588,614.854065 706.199219,614.858887 706.145386,615.347900 
	C706.287842,617.635071 706.065125,619.616516 706.757263,621.197510 
	C709.015564,626.355957 711.462463,631.445740 714.113770,636.414124 
	C716.574707,641.025635 719.391052,645.447571 722.050903,649.952942 
	C722.050903,649.952942 722.000000,650.000000 722.036987,650.328491 
	C722.736389,651.756287 723.398865,652.855652 724.061279,653.955017 
	C724.061279,653.955017 724.004150,653.997559 724.038086,654.325684 
	C724.743958,655.762939 725.415894,656.872192 726.087891,657.981384 
	C726.087891,657.981384 726.023499,657.988831 726.024170,658.376221 
	C726.577698,661.149231 726.696594,663.749451 727.753235,665.885925 
	C735.019043,680.576904 742.587280,695.118347 749.845398,709.813049 
	C755.420898,721.100952 760.685120,732.542664 766.189148,744.258911 
	C767.197388,746.862610 767.899658,749.235657 769.063049,751.355652 
	C770.500427,753.974915 772.320862,756.383911 773.975769,758.883789 
	C774.293945,759.085205 774.612061,759.286560 775.128235,759.909302 
	C775.465393,760.529053 775.621887,760.712708 775.795715,760.881592 
	C777.170654,764.075012 778.545593,767.268494 780.112061,771.135376 
	C781.569214,773.533203 782.834900,775.257446 784.100525,776.981750 
	C784.100525,776.981750 784.031311,776.982666 784.032471,777.352173 
	C786.962219,783.500000 789.890808,789.278198 792.819336,795.056458 
	C792.879395,795.218567 792.939453,795.380676 793.077393,796.133606 
	C793.737000,798.071472 794.318787,799.418518 794.900574,800.765564 
	C794.900574,800.765564 795.169495,800.841125 795.297302,801.082275 
	C795.539673,801.474915 795.662903,801.619019 795.794800,801.755615 
	C795.843567,802.393677 795.892273,803.031799 795.851929,804.145996 
M689.939636,603.368469 
	C690.361206,603.608826 690.782776,603.849243 691.204346,604.089661 
	C691.650146,602.339844 692.970642,600.068909 692.317993,598.973633 
	C691.521606,597.637329 689.067871,597.288574 687.330811,596.512756 
	C687.456970,598.057007 687.426819,599.638245 687.779236,601.129028 
	C687.940674,601.811890 688.854492,602.316833 689.939636,603.368469 
z"/>
<path fill="#8243E0" opacity="1.000000" stroke="none" 
	d="
M446.178741,569.825378 
	C462.515900,533.295288 478.853058,496.765259 495.587280,460.362427 
	C496.506226,460.951141 497.028107,461.412598 497.549988,461.874023 
	C500.036102,458.086609 502.619629,454.358734 504.979828,450.494415 
	C507.183075,446.887085 509.149048,443.134857 511.219421,439.446381 
	C511.573761,439.633270 511.928101,439.820190 512.282471,440.007080 
	C512.826477,447.087769 513.370544,454.168488 513.924988,461.384277 
	C513.436096,461.300171 512.971741,461.227997 512.510498,461.139404 
	C511.250732,460.897400 509.992340,460.648529 508.733398,460.402344 
	C509.287445,461.442139 509.974609,462.434540 510.365326,463.532440 
	C511.007050,465.335419 511.871826,467.197357 511.914398,469.051178 
	C512.090149,476.701080 511.892395,484.359467 512.060181,492.009735 
	C512.105591,494.080414 512.875916,496.155121 513.450134,498.189423 
	C514.228149,500.945953 515.317444,503.625610 515.934265,506.413239 
	C516.431213,508.658875 515.778015,511.351074 516.766296,513.259155 
	C519.505493,518.547363 519.164368,523.786316 517.957825,529.275879 
	C517.677246,530.552307 517.889709,532.931824 518.601746,533.268860 
	C522.960144,535.331848 521.243347,538.097473 520.140686,541.154602 
	C516.968628,549.949158 514.005371,558.818909 510.948456,567.655151 
	C508.705414,574.138672 507.028748,580.913513 503.945160,586.970825 
	C502.394531,590.016968 501.303497,592.448181 502.301514,595.894775 
	C502.372253,596.460815 502.252533,596.750122 501.703247,597.075378 
	C500.942474,598.437561 500.493927,599.715210 500.009155,601.351379 
	C499.793854,602.153320 499.614777,602.596802 499.146790,603.172424 
	C498.309204,604.431763 497.760498,605.558899 497.281158,606.987671 
	C497.137329,607.859497 496.924133,608.429688 496.402771,609.101440 
	C490.754333,612.613098 489.276245,617.609741 490.220642,623.712891 
	C490.255402,623.838501 490.087219,624.037842 489.757294,624.198242 
	C489.041504,625.471008 488.655640,626.583313 488.313019,628.014526 
	C488.087952,628.908447 487.819672,629.483337 487.305176,630.228699 
	C486.764252,631.136414 486.469513,631.873657 486.211548,632.866760 
	C486.104706,633.430298 485.961090,633.737976 485.536133,634.203674 
	C484.903534,635.128662 484.552338,635.895691 484.266907,636.969971 
	C484.117798,637.857666 483.902924,638.438049 483.427216,639.179626 
	C482.829803,640.070435 482.493225,640.800049 482.182526,641.662170 
	C482.208405,641.794617 482.046173,642.010376 481.770630,642.212036 
	C479.650696,646.277588 477.806274,650.141602 475.664215,653.854248 
	C472.901001,649.913086 469.021271,646.391541 468.241913,642.281982 
	C466.126038,631.124573 465.154694,619.734192 464.079559,608.402954 
	C463.610168,603.455933 464.056519,598.426514 463.953857,593.437317 
	C463.923920,591.982544 463.929504,589.756592 463.075073,589.214844 
	C457.695984,585.804138 458.141174,580.379089 457.459595,575.180420 
	C457.043274,572.004578 456.847595,569.338257 459.909363,567.268250 
	C462.140167,565.760132 462.353943,563.592834 460.117828,561.915527 
	C458.632202,560.801147 456.622528,559.506042 455.030212,559.711060 
	C453.898376,559.856812 452.615051,562.250732 452.202850,563.848572 
	C451.343109,567.181213 450.301666,569.945679 446.178741,569.825378 
z"/>
<path fill="#292A5A" opacity="1.000000" stroke="none" 
	d="
M496.710938,608.999939 
	C496.924133,608.429688 497.137329,607.859497 497.570862,606.824280 
	C498.339325,605.252991 498.887512,604.146606 499.435669,603.040283 
	C499.614777,602.596802 499.793854,602.153320 500.262268,601.146423 
	C501.039581,599.385620 501.527527,598.188232 502.015472,596.990845 
	C502.252533,596.750122 502.372253,596.460815 502.584778,595.661621 
	C507.755127,584.109619 512.810974,573.060486 517.640747,561.913330 
	C520.673462,554.913818 523.366760,547.767151 526.496216,540.514648 
	C527.122009,539.568359 527.463928,538.794006 528.002441,537.767822 
	C528.520752,536.516174 528.842529,535.516357 529.439575,534.274048 
	C530.193298,532.691223 530.671692,531.350830 531.279297,529.808960 
	C531.541931,529.279480 531.500549,528.975342 531.583984,528.513916 
	C532.514343,526.890930 533.145081,525.449036 534.015259,523.738281 
	C534.880188,521.671997 535.505615,519.874512 536.350647,517.870239 
	C536.782410,517.107483 536.994507,516.551392 537.341919,515.848877 
	C537.627808,515.459534 537.639893,515.210205 537.804810,514.740662 
	C543.691528,503.440613 554.432007,498.198944 566.073547,508.526672 
	C567.715271,510.587311 569.176147,512.384705 570.716919,514.462952 
	C571.120667,515.216003 571.444580,515.688171 571.826416,516.484375 
	C572.341919,517.788391 572.799500,518.768433 573.280151,520.179688 
	C573.500366,521.148376 573.697510,521.685852 573.845703,522.571777 
	C573.597046,525.575684 573.397400,528.231079 573.197754,530.886536 
	C570.497009,537.253601 567.839294,543.639404 565.087952,549.984497 
	C554.971558,573.314331 544.883911,596.657043 534.667236,619.943054 
	C527.907593,635.349792 520.914673,650.654053 514.099731,666.036743 
	C512.637390,669.337585 511.491425,672.778564 509.746643,676.655212 
	C501.511810,678.687317 493.472687,679.539917 486.645721,674.954285 
	C478.333557,669.371033 476.231415,660.363953 479.558075,650.579102 
	C480.514435,647.765991 481.223602,644.868958 482.046143,642.010376 
	C482.046173,642.010376 482.208405,641.794617 482.456665,641.500732 
	C483.032623,640.477417 483.360382,639.747925 483.688080,639.018433 
	C483.902924,638.438049 484.117798,637.857666 484.542969,636.794067 
	C485.108032,635.555725 485.462769,634.800720 485.817505,634.045654 
	C485.961090,633.737976 486.104706,633.430298 486.469910,632.688416 
	C486.978088,631.522217 487.264709,630.790222 487.551392,630.058228 
	C487.819672,629.483337 488.087952,628.908447 488.601929,627.805176 
	C489.260803,626.197144 489.674011,625.117493 490.087219,624.037842 
	C490.087219,624.037842 490.255402,623.838501 490.504639,623.471680 
	C492.739563,618.403198 494.725250,613.701599 496.710938,608.999939 
z"/>
<path fill="#524EE5" opacity="1.000000" stroke="none" 
	d="
M573.894592,522.223267 
	C573.697510,521.685852 573.500366,521.148376 573.403687,519.931030 
	C573.637146,518.519775 573.770264,517.788391 574.008118,516.669189 
	C573.500916,510.466644 573.831604,504.342041 572.046753,498.912994 
	C569.621887,491.537628 569.645569,484.650604 574.188904,479.881317 
	C569.451050,473.766754 569.656128,473.841766 572.378052,466.400970 
	C573.599304,463.062683 573.813232,459.355896 574.484253,455.816345 
	C573.895020,455.694550 573.305786,455.572784 572.716553,455.450989 
	C572.035339,457.225677 571.701050,459.293152 570.543030,460.665466 
	C569.846191,461.491272 567.056702,461.902161 566.601257,461.350037 
	C564.473389,458.770203 564.919800,449.469177 566.905212,446.641205 
	C570.043823,442.170746 569.457886,439.291351 564.534058,436.068909 
	C564.071899,438.945526 563.628479,441.705353 563.117859,444.883606 
	C559.420105,441.787262 558.711243,435.860321 561.650574,433.229065 
	C564.294800,430.861938 564.371460,428.444885 563.199280,425.657043 
	C561.660645,421.997772 559.335876,418.569122 558.392578,414.781464 
	C556.710022,408.024658 553.339966,401.367218 555.793335,394.058838 
	C560.728455,422.090240 575.383850,446.208374 587.144897,471.463165 
	C600.827515,500.844482 614.978149,530.007874 628.977295,559.623047 
	C629.692932,562.623474 630.118225,565.356201 631.069031,567.891785 
	C633.222656,573.634827 635.574524,579.306458 637.978088,584.950806 
	C638.738525,586.736572 640.325684,588.231812 640.825806,590.054504 
	C642.053650,594.529114 642.869141,599.116821 643.866516,603.733154 
	C647.776733,601.285156 649.028137,604.298340 650.104187,608.490906 
	C650.833374,611.331909 652.577759,613.899841 653.708069,616.655579 
	C654.254150,617.987000 654.431641,619.469543 654.775940,620.883667 
	C654.266174,621.111145 653.756348,621.338684 653.246582,621.566223 
	C650.681213,617.939087 648.115906,614.311951 644.957703,609.846680 
	C644.197388,614.082764 641.198120,617.429993 646.503479,619.827148 
	C647.175842,620.130859 647.315735,622.126587 647.303772,623.334412 
	C647.268127,626.921204 646.742798,630.522156 646.941406,634.087952 
	C647.279846,640.164612 645.034790,642.017883 639.122192,640.715759 
	C637.762085,640.416199 635.987183,642.000610 634.403137,642.718018 
	C635.159912,644.004700 635.809082,645.372375 636.700989,646.557373 
	C637.799072,648.016296 639.099487,649.322937 639.682068,649.982117 
	C638.103699,652.060852 637.164368,653.297974 636.225098,654.535095 
	C637.715149,655.573547 639.205200,656.611938 640.695251,657.650391 
	C641.026245,657.278198 641.357239,656.906006 641.688232,656.533875 
	C642.326965,657.614990 642.711121,659.242615 643.649780,659.679871 
	C647.169495,661.319397 647.250671,664.361206 646.937988,667.329590 
	C646.156921,674.743530 648.844482,681.089844 651.934265,687.574890 
	C653.062683,689.943176 652.076660,693.318909 652.009521,696.643677 
	C649.729614,692.948181 647.495605,688.844116 645.105957,684.075439 
	C644.275513,682.292603 643.600708,681.174438 642.925903,680.056274 
	C642.925903,680.056274 642.966614,679.999268 642.960938,679.622070 
	C642.002869,675.497192 642.812195,670.881042 637.937256,669.067383 
	C637.937256,669.067383 637.946838,669.037598 637.962219,668.650513 
	C637.020691,666.475342 636.063721,664.687256 635.106750,662.899231 
	C635.106750,662.899231 634.962708,662.493347 634.810425,662.077393 
	C634.520813,661.379944 634.331238,661.139709 634.089355,660.940796 
	C634.089355,660.940796 633.963318,660.546021 633.955261,659.940674 
	C633.250122,657.520508 632.553040,655.705627 631.768494,653.533447 
	C629.484253,649.095337 627.287476,645.014465 625.090698,640.933594 
	C625.090698,640.933594 624.949585,640.544128 624.931519,639.936523 
	C623.314026,636.215454 621.714539,633.102051 620.114990,629.988708 
	C620.114990,629.988708 619.989807,629.538757 619.951660,628.914734 
	C615.949646,614.270630 609.341858,601.426025 602.298157,588.780151 
	C602.105042,588.433472 601.440247,588.349426 600.995422,588.142883 
	C600.669312,587.664673 600.343201,587.186401 600.180542,586.108032 
	C599.524902,584.036682 598.705811,582.565491 597.886719,581.094360 
	C597.886719,581.094360 597.968140,581.068237 597.965149,580.671021 
	C597.524536,578.535706 597.325562,576.692078 596.611328,575.076294 
	C591.023682,562.435303 585.388000,549.814575 579.606018,537.261902 
	C578.996643,535.939026 577.345947,535.095886 576.178284,534.030212 
	C576.178284,534.030212 575.999939,533.586365 575.973389,532.912354 
	C575.262817,528.899963 574.578674,525.561646 573.894592,522.223267 
M640.683899,623.772156 
	C641.300781,623.406189 641.917725,623.040222 642.534668,622.674255 
	C642.292358,622.379211 642.050110,622.084167 641.807861,621.789124 
	C641.412476,622.305237 641.017151,622.821411 640.683899,623.772156 
z"/>
<path fill="#9E3DD8" opacity="1.000000" stroke="none" 
	d="
M439.999695,806.065857 
	C438.497986,810.071777 436.187683,812.196960 431.328979,812.152283 
	C404.346832,811.904114 377.361267,812.018127 350.376892,812.020020 
	C344.719177,812.020386 340.733398,806.513733 342.979218,801.215576 
	C349.606110,785.582214 356.407990,770.022339 363.228821,754.471985 
	C370.057220,738.904236 376.880402,723.332275 383.921570,707.860413 
	C387.912476,699.090881 392.586731,690.629822 396.501526,681.828796 
	C401.248199,671.157715 405.404022,660.225281 410.028168,649.497681 
	C414.248413,639.707031 418.752594,630.038757 423.494202,620.545105 
	C422.704834,624.711487 421.788635,628.738403 420.342102,632.564941 
	C418.469086,637.519958 415.955841,642.235596 414.135681,647.207092 
	C412.924347,650.515808 413.588715,655.575684 411.410278,657.258179 
	C405.795990,661.594604 407.822418,665.553772 409.763641,670.379028 
	C411.867859,675.609375 411.770355,681.007812 409.803345,686.182251 
	C409.338867,686.225342 408.874390,686.268433 408.409912,686.311523 
	C407.856110,684.453491 407.302307,682.595398 406.694885,680.557434 
	C403.608948,683.563232 402.874146,685.343628 405.711243,689.867432 
	C409.261627,695.528564 409.953674,701.370361 410.230835,707.788818 
	C411.239777,731.153564 412.757721,754.495911 413.964478,777.852844 
	C414.287933,784.113647 413.074707,790.696533 414.658234,796.567444 
	C415.783173,800.738220 416.552216,803.356201 412.391357,805.718872 
	C416.066833,809.619263 420.049194,812.051453 425.003296,810.883118 
	C430.097473,809.681702 435.008514,807.703918 439.999695,806.065857 
M407.159241,675.315125 
	C406.662750,675.803040 406.166229,676.290955 405.669678,676.778809 
	C406.211121,676.991211 406.752563,677.203552 407.294037,677.415894 
	C407.419586,676.771423 407.545135,676.126953 407.159241,675.315125 
z"/>
<path fill="#8B40DF" opacity="1.000000" stroke="none" 
	d="
M446.176697,569.850647 
	C450.301666,569.945679 451.343109,567.181213 452.202850,563.848572 
	C452.615051,562.250732 453.898376,559.856812 455.030212,559.711060 
	C456.622528,559.506042 458.632202,560.801147 460.117828,561.915527 
	C462.353943,563.592834 462.140167,565.760132 459.909363,567.268250 
	C456.847595,569.338257 457.043274,572.004578 457.459595,575.180420 
	C458.141174,580.379089 457.695984,585.804138 463.075073,589.214844 
	C463.929504,589.756592 463.923920,591.982544 463.953857,593.437317 
	C464.056519,598.426514 463.610168,603.455933 464.079559,608.402954 
	C465.154694,619.734192 466.126038,631.124573 468.241913,642.281982 
	C469.021271,646.391541 472.901001,649.913086 475.638458,654.256470 
	C475.938660,658.540039 475.967010,662.270020 475.657288,666.064209 
	C473.887512,665.295105 471.900635,664.802490 471.137695,663.559021 
	C469.463623,660.830383 468.409210,657.721558 467.101807,654.768005 
	C466.694031,654.817322 466.286224,654.866638 465.878418,654.915955 
	C465.878418,656.312500 465.760620,657.721375 465.904297,659.102966 
	C466.160278,661.564026 466.904999,664.014648 466.859894,666.458862 
	C466.728638,673.570496 466.326904,680.677673 465.987885,687.784546 
	C465.893219,689.769287 465.516296,691.745605 465.496613,693.727966 
	C465.432037,700.239319 465.419678,706.752319 465.487640,713.263611 
	C465.547577,719.003052 469.009552,724.900818 464.037384,730.392212 
	C462.450195,732.145081 461.240448,734.880493 461.139221,737.221741 
	C460.788849,745.324829 460.870544,753.455750 461.085876,761.568176 
	C461.146973,763.871033 462.223083,766.147034 462.833710,768.435303 
	C464.953094,767.673889 467.053040,766.849731 469.201782,766.182861 
	C470.027496,765.926636 470.964386,766.028687 471.850647,765.967529 
	C471.885223,766.723022 472.256592,767.768860 471.897705,768.185059 
	C470.069092,770.305664 468.362823,773.432617 466.039703,774.051025 
	C459.944305,775.673645 460.761505,778.193665 463.996582,781.802185 
	C463.675323,782.021790 463.354065,782.241394 462.555908,782.745361 
	C456.126923,784.957703 451.956940,789.538818 452.069855,794.025757 
	C449.928772,796.289368 447.787689,798.553040 445.169983,801.079712 
	C444.477264,801.535156 444.277313,801.743164 444.093567,801.966797 
	C443.906525,802.269653 443.719482,802.572571 442.956512,802.858887 
	C441.758362,802.147461 440.494324,800.987732 440.610321,800.827576 
	C442.317841,798.470154 444.130402,796.174133 446.090607,794.020630 
	C447.025421,792.993591 448.323486,792.297241 449.457031,791.451172 
	C449.260529,791.084656 449.063995,790.718201 448.867493,790.351746 
	C447.046204,790.620483 445.224915,790.889282 442.150024,791.343018 
	C441.749725,784.714783 441.138611,778.511292 441.040863,772.299683 
	C440.614044,745.190613 440.364105,718.078735 439.975037,690.968994 
	C439.915649,686.831421 439.077759,682.682800 439.257446,678.567932 
	C440.091339,659.470276 442.177734,640.298584 434.351349,621.950623 
	C433.977600,621.074341 434.243896,619.944214 433.972595,619.001221 
	C433.387634,616.968140 432.646637,614.980042 431.975342,612.580200 
	C432.420288,608.924988 432.290497,605.450195 433.414673,602.444458 
	C435.896088,595.809937 439.009155,589.411560 441.864471,582.916870 
	C442.917175,580.176270 443.969879,577.435608 445.350159,574.103577 
	C445.860260,572.303894 446.042816,571.095581 446.225372,569.887329 
	C446.225372,569.887329 446.174622,569.875916 446.176697,569.850647 
z"/>
<path fill="#292A5A" opacity="1.000000" stroke="none" 
	d="
M667.402710,731.909241 
	C674.506653,742.373718 674.291138,750.993286 667.277710,760.263733 
	C663.620056,765.098450 658.875610,767.522400 652.012695,767.290955 
	C641.798950,767.241272 632.375366,767.204468 622.495850,767.071533 
	C605.963440,766.912476 589.886292,766.743408 573.810974,766.850220 
	C568.870605,766.882996 563.935303,767.670166 558.580322,768.052429 
	C531.082092,771.368774 512.795410,786.368835 501.286987,810.805664 
	C500.300415,810.967041 499.647003,811.091980 498.993591,811.216797 
	C498.732330,810.863647 498.166504,810.382446 498.253448,810.175598 
	C503.017792,798.837646 507.191864,787.187927 512.838562,776.302856 
	C518.093323,766.173462 524.304993,756.389893 531.223755,747.314331 
	C538.906860,737.236206 550.634888,733.360718 562.727234,733.068726 
	C597.454895,732.230286 632.202881,732.233643 667.402710,731.909241 
z"/>
<path fill="#5EEDEE" opacity="1.000000" stroke="none" 
	d="
M690.859863,587.048035 
	C685.754761,588.097839 684.458496,593.141113 683.655396,596.551880 
	C682.998108,599.343323 683.565857,604.557373 688.282593,606.459229 
	C689.336487,606.884277 690.533325,608.173279 690.739685,609.242859 
	C691.268433,611.983948 691.888062,614.080200 695.388367,613.723389 
	C696.015137,613.659546 697.277344,614.815308 697.345276,615.497559 
	C697.439575,616.445618 696.958191,618.031494 696.246277,618.385742 
	C691.325623,620.834290 692.757690,622.913147 696.109131,625.643677 
	C698.964539,627.969971 698.593750,632.492493 695.855103,634.787048 
	C691.307068,638.597656 688.570435,643.218018 688.969543,649.411926 
	C689.260498,653.926575 689.311523,658.464539 685.264343,662.098145 
	C684.317627,661.249695 683.346680,660.379517 682.108765,659.270081 
	C680.132629,662.788757 681.598755,665.205200 683.902832,666.879761 
	C684.348694,667.203796 686.862000,665.122437 688.082092,663.830078 
	C689.595520,662.227112 690.755493,660.290527 692.703430,658.888245 
	C691.754578,664.717163 689.814697,669.977173 684.800171,674.078308 
	C677.536133,659.941833 670.575134,645.621094 663.683289,631.267212 
	C652.908875,608.827209 642.181335,586.364685 631.439758,563.630981 
	C632.604919,560.294189 634.671570,557.262939 634.756042,554.177368 
	C635.026306,544.308594 638.451965,534.869568 638.069336,524.912598 
	C637.686462,514.949036 638.089417,504.957458 637.916687,494.982147 
	C637.868835,492.222107 636.901672,489.489166 636.529663,486.720490 
	C636.142944,483.841705 634.868530,480.245728 640.506592,480.923096 
	C642.321655,484.590912 643.816162,488.193756 645.653320,492.374207 
	C648.027954,496.624786 650.059814,500.297699 652.091736,503.970612 
	C652.091736,503.970612 652.027710,503.981018 652.033081,504.323242 
	C652.631287,506.101837 653.224121,507.538177 653.816956,508.974518 
	C654.807617,510.741058 655.798218,512.507629 656.854004,514.934998 
	C656.494995,521.260986 660.654480,524.380981 663.832520,528.045898 
	C663.832520,528.045898 663.984070,528.490112 664.021851,529.125244 
	C666.551025,536.171021 669.035156,542.584473 671.537292,548.990906 
	C672.611206,551.740417 673.508240,554.587280 674.868591,557.189758 
	C676.762756,560.813477 679.026123,564.243591 681.113953,567.766968 
	C684.113220,572.828430 687.096802,577.899231 690.087097,582.966003 
	C690.087097,582.966003 690.022522,582.982483 690.131531,583.166687 
	C690.400024,583.639648 690.603271,583.893311 690.850220,584.111877 
	C690.850220,584.111877 690.991089,584.460144 690.976440,585.016663 
	C690.927795,586.064819 690.893860,586.556396 690.859863,587.048035 
z"/>
<path fill="#933EDD" opacity="1.000000" stroke="none" 
	d="
M431.969482,612.973511 
	C432.646637,614.980042 433.387634,616.968140 433.972595,619.001221 
	C434.243896,619.944214 433.977600,621.074341 434.351349,621.950623 
	C442.177734,640.298584 440.091339,659.470276 439.257446,678.567932 
	C439.077759,682.682800 439.915649,686.831421 439.975037,690.968994 
	C440.364105,718.078735 440.614044,745.190613 441.040863,772.299683 
	C441.138611,778.511292 441.749725,784.714783 442.150024,791.343018 
	C445.224915,790.889282 447.046204,790.620483 448.867493,790.351746 
	C449.063995,790.718201 449.260529,791.084656 449.457031,791.451172 
	C448.323486,792.297241 447.025421,792.993591 446.090607,794.020630 
	C444.130402,796.174133 442.317841,798.470154 440.610321,800.827576 
	C440.494324,800.987732 441.758362,802.147461 442.696747,802.943359 
	C442.205444,803.975220 441.397980,804.905945 440.295105,805.951294 
	C435.008514,807.703918 430.097473,809.681702 425.003296,810.883118 
	C420.049194,812.051453 416.066833,809.619263 412.391357,805.718872 
	C416.552216,803.356201 415.783173,800.738220 414.658234,796.567444 
	C413.074707,790.696533 414.287933,784.113647 413.964478,777.852844 
	C412.757721,754.495911 411.239777,731.153564 410.230835,707.788818 
	C409.953674,701.370361 409.261627,695.528564 405.711243,689.867432 
	C402.874146,685.343628 403.608948,683.563232 406.694885,680.557434 
	C407.302307,682.595398 407.856110,684.453491 408.409912,686.311523 
	C408.874390,686.268433 409.338867,686.225342 409.803345,686.182251 
	C411.770355,681.007812 411.867859,675.609375 409.763641,670.379028 
	C407.822418,665.553772 405.795990,661.594604 411.410278,657.258179 
	C413.588715,655.575684 412.924347,650.515808 414.135681,647.207092 
	C415.955841,642.235596 418.469086,637.519958 420.342102,632.564941 
	C421.788635,628.738403 422.704834,624.711487 423.807373,620.367859 
	C423.757996,619.962097 423.828400,619.853027 424.206940,619.808105 
	C425.402466,618.847412 426.219452,617.931702 427.326385,616.876404 
	C428.062103,615.811707 428.507843,614.886475 429.222076,613.781921 
	C430.316864,613.392883 431.143158,613.183167 431.969482,612.973511 
z"/>
<path fill="#6748E3" opacity="1.000000" stroke="none" 
	d="
M555.848206,393.712646 
	C553.339966,401.367218 556.710022,408.024658 558.392578,414.781464 
	C559.335876,418.569122 561.660645,421.997772 563.199280,425.657043 
	C564.371460,428.444885 564.294800,430.861938 561.650574,433.229065 
	C558.711243,435.860321 559.420105,441.787262 563.117859,444.883606 
	C563.628479,441.705353 564.071899,438.945526 564.534058,436.068909 
	C569.457886,439.291351 570.043823,442.170746 566.905212,446.641205 
	C564.919800,449.469177 564.473389,458.770203 566.601257,461.350037 
	C567.056702,461.902161 569.846191,461.491272 570.543030,460.665466 
	C571.701050,459.293152 572.035339,457.225677 572.716553,455.450989 
	C573.305786,455.572784 573.895020,455.694550 574.484253,455.816345 
	C573.813232,459.355896 573.599304,463.062683 572.378052,466.400970 
	C569.656128,473.841766 569.451050,473.766754 574.188904,479.881317 
	C569.645569,484.650604 569.621887,491.537628 572.046753,498.912994 
	C573.831604,504.342041 573.500916,510.466644 573.747559,516.544434 
	C572.844299,516.591797 572.306335,516.376099 571.768433,516.160400 
	C571.444580,515.688171 571.120667,515.216003 570.953552,514.189209 
	C571.175476,511.687683 571.240723,509.740662 571.305908,507.793640 
	C569.501526,507.950287 567.697144,508.106873 565.892761,508.263428 
	C554.432007,498.198944 543.691528,503.440613 537.706543,514.250122 
	C537.965027,510.583801 537.449341,505.742065 539.498047,504.100281 
	C544.079285,500.428986 543.488037,496.349823 543.008667,491.798828 
	C541.850708,480.806610 545.148743,469.656128 539.513306,458.673462 
	C536.619141,453.033234 537.754456,445.342957 536.990662,438.587921 
	C535.800171,428.059753 534.499573,417.543884 533.357544,407.010620 
	C533.168823,405.270172 533.550964,403.467865 533.669312,401.694122 
	C534.087402,401.676270 534.505432,401.658386 534.923523,401.640503 
	C535.665283,403.558655 536.407043,405.476807 537.148865,407.394958 
	C537.558228,407.305908 537.967651,407.216827 538.377014,407.127747 
	C538.377014,403.077576 538.377014,399.027405 538.377014,395.878937 
	C534.430847,395.503204 531.137024,395.189606 527.719238,394.864166 
	C526.227722,398.131042 524.861816,401.516357 523.105408,404.685303 
	C522.680908,405.451202 520.966309,405.502075 519.844971,405.881775 
	C519.881470,405.708099 519.918030,405.534393 520.156311,405.019714 
	C520.514832,404.517792 520.560791,404.329712 520.495850,404.114502 
	C528.228027,387.641815 535.976868,371.176910 543.682739,354.691956 
	C546.158447,349.395721 548.520630,344.046448 551.313477,338.911377 
	C553.767090,344.586090 555.932800,350.039307 557.854431,355.577240 
	C558.347229,356.997314 558.324280,358.721436 558.104370,360.243195 
	C556.810303,369.198151 555.277100,378.120239 554.114624,387.090973 
	C553.914856,388.633026 555.108582,390.355591 555.658569,391.994781 
	C555.740051,392.451996 555.821533,392.909210 555.848206,393.712646 
z"/>
<path fill="#7347E4" opacity="1.000000" stroke="none" 
	d="
M519.518066,406.062500 
	C520.966309,405.502075 522.680908,405.451202 523.105408,404.685303 
	C524.861816,401.516357 526.227722,398.131042 527.719238,394.864166 
	C531.137024,395.189606 534.430847,395.503204 538.377014,395.878937 
	C538.377014,399.027405 538.377014,403.077576 538.377014,407.127747 
	C537.967651,407.216827 537.558228,407.305908 537.148865,407.394958 
	C536.407043,405.476807 535.665283,403.558655 534.923523,401.640503 
	C534.505432,401.658386 534.087402,401.676270 533.669312,401.694122 
	C533.550964,403.467865 533.168823,405.270172 533.357544,407.010620 
	C534.499573,417.543884 535.800171,428.059753 536.990662,438.587921 
	C537.754456,445.342957 536.619141,453.033234 539.513306,458.673462 
	C545.148743,469.656128 541.850708,480.806610 543.008667,491.798828 
	C543.488037,496.349823 544.079285,500.428986 539.498047,504.100281 
	C537.449341,505.742065 537.965027,510.583801 537.415283,514.463867 
	C537.639893,515.210205 537.627808,515.459534 537.087280,515.916992 
	C536.508545,516.780090 536.319763,517.428589 536.130981,518.077026 
	C535.505615,519.874512 534.880188,521.671997 533.685852,523.861267 
	C532.506104,525.733704 531.895264,527.214294 531.284424,528.694946 
	C531.500549,528.975342 531.541931,529.279480 530.939270,529.969238 
	C530.034790,531.726196 529.599548,533.121338 529.164307,534.516541 
	C528.842529,535.516357 528.520752,536.516174 527.721741,537.932495 
	C526.900452,539.128174 526.556396,539.907349 526.212341,540.686523 
	C523.366760,547.767151 520.673462,554.913818 517.640747,561.913330 
	C512.810974,573.060486 507.755127,584.109619 502.511658,595.433411 
	C501.303497,592.448181 502.394531,590.016968 503.945160,586.970825 
	C507.028748,580.913513 508.705414,574.138672 510.948456,567.655151 
	C514.005371,558.818909 516.968628,549.949158 520.140686,541.154602 
	C521.243347,538.097473 522.960144,535.331848 518.601746,533.268860 
	C517.889709,532.931824 517.677246,530.552307 517.957825,529.275879 
	C519.164368,523.786316 519.505493,518.547363 516.766296,513.259155 
	C515.778015,511.351074 516.431213,508.658875 515.934265,506.413239 
	C515.317444,503.625610 514.228149,500.945953 513.450134,498.189423 
	C512.875916,496.155121 512.105591,494.080414 512.060181,492.009735 
	C511.892395,484.359467 512.090149,476.701080 511.914398,469.051178 
	C511.871826,467.197357 511.007050,465.335419 510.365326,463.532440 
	C509.974609,462.434540 509.287445,461.442139 508.733398,460.402344 
	C509.992340,460.648529 511.250732,460.897400 512.510498,461.139404 
	C512.971741,461.227997 513.436096,461.300171 513.924988,461.384277 
	C513.370544,454.168488 512.826477,447.087769 512.282471,440.007080 
	C511.928101,439.820190 511.573761,439.633270 511.219421,439.446381 
	C509.149048,443.134857 507.183075,446.887085 504.979828,450.494415 
	C502.619629,454.358734 500.036102,458.086609 497.549988,461.874023 
	C497.028107,461.412598 496.506226,460.951141 495.909546,460.200745 
	C500.868805,448.738281 505.982391,437.599670 510.906982,426.378113 
	C513.822632,419.734161 516.439819,412.959259 519.518066,406.062500 
z"/>
<path fill="#8243E0" opacity="1.000000" stroke="none" 
	d="
M464.327972,781.774963 
	C460.761505,778.193665 459.944305,775.673645 466.039703,774.051025 
	C468.362823,773.432617 470.069092,770.305664 471.897705,768.185059 
	C472.256592,767.768860 471.885223,766.723022 471.850647,765.967529 
	C470.964386,766.028687 470.027496,765.926636 469.201782,766.182861 
	C467.053040,766.849731 464.953094,767.673889 462.833710,768.435303 
	C462.223083,766.147034 461.146973,763.871033 461.085876,761.568176 
	C460.870544,753.455750 460.788849,745.324829 461.139221,737.221741 
	C461.240448,734.880493 462.450195,732.145081 464.037384,730.392212 
	C469.009552,724.900818 465.547577,719.003052 465.487640,713.263611 
	C465.419678,706.752319 465.432037,700.239319 465.496613,693.727966 
	C465.516296,691.745605 465.893219,689.769287 465.987885,687.784546 
	C466.326904,680.677673 466.728638,673.570496 466.859894,666.458862 
	C466.904999,664.014648 466.160278,661.564026 465.904297,659.102966 
	C465.760620,657.721375 465.878418,656.312500 465.878418,654.915955 
	C466.286224,654.866638 466.694031,654.817322 467.101807,654.768005 
	C468.409210,657.721558 469.463623,660.830383 471.137695,663.559021 
	C471.900635,664.802490 473.887512,665.295105 475.706360,666.411377 
	C481.527618,678.041748 492.897583,680.566956 504.487427,684.253906 
	C499.208160,687.757568 499.128876,690.567993 502.982056,693.692932 
	C504.005005,694.522461 504.821625,696.256104 504.829468,697.580078 
	C504.873871,705.047546 504.625153,712.516357 504.515472,719.985291 
	C504.476898,722.612183 504.148834,725.321045 504.656403,727.851318 
	C505.638275,732.746399 503.913239,736.928650 499.586365,739.394897 
	C498.059723,740.265198 496.524567,741.459717 495.544159,742.885071 
	C492.685333,747.041504 490.063538,751.364319 487.453064,755.684875 
	C486.984528,756.460388 487.012726,757.535950 486.811554,758.472961 
	C486.811554,758.472961 486.727661,758.736877 486.258484,758.691895 
	C483.274139,759.003845 481.146271,759.691101 482.082214,762.992188 
	C476.274597,769.244080 470.466949,775.495911 464.327972,781.774963 
M497.718140,731.593323 
	C497.225372,732.637329 496.732635,733.681274 496.239868,734.725281 
	C496.932312,734.838745 497.624725,734.952271 498.317169,735.065735 
	C498.317169,733.878418 498.317169,732.691101 497.718140,731.593323 
z"/>
<path fill="#7347E4" opacity="1.000000" stroke="none" 
	d="
M487.091766,758.294922 
	C487.012726,757.535950 486.984528,756.460388 487.453064,755.684875 
	C490.063538,751.364319 492.685333,747.041504 495.544159,742.885071 
	C496.524567,741.459717 498.059723,740.265198 499.586365,739.394897 
	C503.913239,736.928650 505.638275,732.746399 504.656403,727.851318 
	C504.148834,725.321045 504.476898,722.612183 504.515472,719.985291 
	C504.625153,712.516357 504.873871,705.047546 504.829468,697.580078 
	C504.821625,696.256104 504.005005,694.522461 502.982056,693.692932 
	C499.128876,690.567993 499.208160,687.757568 504.487427,684.253906 
	C492.897583,680.566956 481.527618,678.041748 476.044434,666.347229 
	C475.967010,662.270020 475.938660,658.540039 475.936096,654.407837 
	C477.806274,650.141602 479.650696,646.277588 481.770630,642.212036 
	C481.223602,644.868958 480.514435,647.765991 479.558075,650.579102 
	C476.231415,660.363953 478.333557,669.371033 486.645721,674.954285 
	C493.472687,679.539917 501.511810,678.687317 509.699463,677.013794 
	C513.051819,677.595154 515.962708,678.582275 518.952332,678.986023 
	C525.045288,679.809143 531.266296,679.879028 537.279663,681.052856 
	C547.817810,683.110046 550.702942,692.142395 543.553711,699.927246 
	C537.971252,706.005981 532.250183,711.957458 526.112671,718.229248 
	C525.418396,718.661316 525.218872,718.847473 525.036011,719.051514 
	C525.036011,719.051514 524.995667,719.008423 524.842773,719.180969 
	C524.457825,719.572205 524.239624,719.803955 524.035217,720.048767 
	C524.035217,720.048767 524.054260,720.008789 523.794678,720.205261 
	C523.046265,721.290405 522.557495,722.179077 522.068787,723.067749 
	C522.068787,723.067749 522.099670,723.057251 521.791748,723.124939 
	C521.023682,723.823120 520.563538,724.453613 520.103394,725.084106 
	C520.103394,725.084106 520.088745,725.071594 519.886719,725.208557 
	C519.437073,725.553955 519.230652,725.797363 519.065491,726.075684 
	C519.065491,726.075684 519.010803,725.998596 518.847229,726.167786 
	C518.434875,726.544250 518.232788,726.789856 518.077393,727.073853 
	C518.077393,727.073853 518.117798,727.117554 517.728210,727.130859 
	C515.947754,728.787354 514.556885,730.430542 513.166016,732.073730 
	C513.165955,732.073730 513.112244,732.115906 512.900391,732.233398 
	C512.446106,732.561951 512.236206,732.801514 512.058838,733.069580 
	C512.058838,733.069580 512.000183,733.004456 511.843567,733.177612 
	C511.445068,733.563171 511.233704,733.802612 511.052887,734.069031 
	C511.052887,734.069031 511.003296,734.006409 510.845764,734.177979 
	C510.446350,734.563721 510.233154,734.803406 510.048676,735.068604 
	C510.048676,735.068604 510.004700,735.008301 509.847290,735.179382 
	C509.448669,735.566467 509.233124,735.805542 509.043274,736.067749 
	C509.043274,736.067749 509.006409,736.009277 508.849182,736.179810 
	C508.451752,736.568054 508.234650,736.806763 508.040649,737.066528 
	C508.040649,737.066528 508.007690,737.008057 507.849426,737.178467 
	C507.450439,737.566956 507.232574,737.805908 507.037628,738.065735 
	C507.037628,738.065735 507.006805,738.008484 506.847778,738.177734 
	C506.447601,738.565613 506.228546,738.804382 506.031586,739.063416 
	C506.031586,739.063416 506.006927,739.007080 505.847412,739.175293 
	C505.446808,739.563354 505.227814,739.803406 505.030914,740.063599 
	C505.030914,740.063599 505.006989,740.007141 504.847137,740.174805 
	C504.445618,740.562500 504.226440,740.802917 504.029724,741.063782 
	C504.029724,741.063782 504.006989,741.007263 503.846924,741.174438 
	C503.444946,741.561646 503.225739,741.802490 503.029327,742.064087 
	C503.029327,742.064087 503.008270,742.007080 502.865662,742.166504 
	C502.501221,742.532227 502.319641,742.769348 502.178284,743.037292 
	C497.242859,748.063782 492.307434,753.090332 487.091766,758.294922 
z"/>
<path fill="#524EE5" opacity="1.000000" stroke="none" 
	d="
M555.759888,391.540894 
	C555.108582,390.355591 553.914856,388.633026 554.114624,387.090973 
	C555.277100,378.120239 556.810303,369.198151 558.104370,360.243195 
	C558.324280,358.721436 558.347229,356.997314 557.854431,355.577240 
	C555.932800,350.039307 553.767090,344.586090 551.598328,338.670197 
	C551.504517,338.239044 551.522156,338.241974 551.880005,338.418884 
	C554.521118,339.590271 556.804443,340.584778 559.828857,341.902069 
	C559.609924,343.224091 559.195618,345.726196 558.654785,348.992340 
	C563.033752,347.970490 564.159241,345.310303 563.932312,342.029449 
	C563.615112,337.442169 565.529663,334.049225 568.831787,331.192871 
	C569.467957,332.188873 570.104065,333.184906 570.796875,334.469025 
	C569.943542,335.836945 568.664307,336.772980 568.179504,338.018280 
	C561.525757,355.109253 555.294312,372.315155 555.759888,391.540894 
z"/>
<path fill="#74EEF0" opacity="1.000000" stroke="none" 
	d="
M766.087769,743.915955 
	C760.685120,732.542664 755.420898,721.100952 749.845398,709.813049 
	C742.587280,695.118347 735.019043,680.576904 727.753235,665.885925 
	C726.696594,663.749451 726.577698,661.149231 726.029358,658.344177 
	C728.029053,661.160461 730.315613,664.254150 731.972046,667.654785 
	C742.519531,689.308472 752.943420,711.022339 763.366272,732.736450 
	C765.027161,736.196472 766.477417,739.757629 767.771362,743.634155 
	C767.041016,743.969543 766.564392,743.942749 766.087769,743.915955 
z"/>
<path fill="#6748E3" opacity="1.000000" stroke="none" 
	d="
M568.845337,330.809753 
	C565.529663,334.049225 563.615112,337.442169 563.932312,342.029449 
	C564.159241,345.310303 563.033752,347.970490 558.654785,348.992340 
	C559.195618,345.726196 559.609924,343.224091 559.828857,341.902069 
	C556.804443,340.584778 554.521118,339.590271 551.888611,338.415833 
	C552.539856,336.120697 553.331055,333.871979 554.579895,331.915253 
	C558.419800,325.898499 563.671631,325.411987 568.845337,330.809753 
z"/>
<path fill="#8243E0" opacity="1.000000" stroke="none" 
	d="
M499.308380,811.479370 
	C499.647003,811.091980 500.300415,810.967041 501.780884,810.849548 
	C519.493896,810.840210 536.379944,810.823486 553.717590,810.817627 
	C557.163147,810.851685 560.157043,810.882019 563.151001,810.896973 
	C586.102051,811.011658 609.053162,811.123413 631.998108,811.396973 
	C631.992004,811.557861 631.981506,811.879700 631.981506,811.879700 
	C593.016479,811.940491 554.051453,812.014038 515.086426,812.046997 
	C509.932098,812.051331 504.777588,811.848633 499.308380,811.479370 
z"/>
<path fill="#74EEF0" opacity="1.000000" stroke="none" 
	d="
M690.039917,582.583008 
	C687.096802,577.899231 684.113220,572.828430 681.113953,567.766968 
	C679.026123,564.243591 676.762756,560.813477 674.868591,557.189758 
	C673.508240,554.587280 672.611206,551.740417 671.537292,548.990906 
	C669.035156,542.584473 666.551025,536.171021 664.061157,529.356628 
	C672.706055,546.701965 681.349365,564.451050 690.039917,582.583008 
z"/>
<path fill="#7347E4" opacity="1.000000" stroke="none" 
	d="
M632.447510,811.947876 
	C631.981506,811.879700 631.992004,811.557861 632.461670,811.320312 
	C662.934021,811.051086 692.936768,811.019470 722.939453,810.987854 
	C731.613464,811.057190 740.287537,811.126526 749.437561,811.365845 
	C749.913574,811.535828 749.935242,811.831543 749.935242,811.831543 
	C717.900085,811.895935 685.864990,811.963196 653.829834,812.022339 
	C646.857727,812.035217 639.885681,812.018921 632.447510,811.947876 
z"/>
<path fill="#8243E0" opacity="1.000000" stroke="none" 
	d="
M576.128906,534.401611 
	C577.345947,535.095886 578.996643,535.939026 579.606018,537.261902 
	C585.388000,549.814575 591.023682,562.435303 596.611328,575.076294 
	C597.325562,576.692078 597.524536,578.535706 597.926270,580.675964 
	C594.043091,573.326538 590.072144,565.633240 586.383484,557.806824 
	C582.798279,550.199829 579.502441,542.456482 576.128906,534.401611 
z"/>
<path fill="#524EE5" opacity="1.000000" stroke="none" 
	d="
M651.980957,697.413208 
	C654.095337,700.210999 656.477478,703.261841 658.336975,706.603516 
	C660.500061,710.490784 662.327820,714.580566 664.071594,718.680176 
	C665.540588,722.133667 666.680969,725.726990 667.960327,729.666687 
	C665.931946,727.038574 663.497314,724.194946 661.971008,720.927063 
	C658.420471,713.325073 655.307739,705.518555 651.980957,697.413208 
z"/>
<path fill="#8243E0" opacity="1.000000" stroke="none" 
	d="
M600.990356,588.506470 
	C601.440247,588.349426 602.105042,588.433472 602.298157,588.780151 
	C609.341858,601.426025 615.949646,614.270630 619.883423,628.691406 
	C614.549561,617.883606 609.238708,606.678528 603.948181,595.463806 
	C602.920227,593.284973 601.970947,591.068970 600.990356,588.506470 
z"/>
<path fill="#9E3DD8" opacity="1.000000" stroke="none" 
	d="
M431.975342,612.580200 
	C431.143158,613.183167 430.316864,613.392883 428.975098,613.971558 
	C427.985260,615.232361 427.510864,616.124146 427.036469,617.015930 
	C426.219452,617.931702 425.402466,618.847412 424.266724,619.833374 
	C429.124817,607.913025 434.289825,595.917236 439.522095,583.950928 
	C439.730164,583.475159 440.577759,583.278992 441.495911,582.934692 
	C439.009155,589.411560 435.896088,595.809937 433.414673,602.444458 
	C432.290497,605.450195 432.420288,608.924988 431.975342,612.580200 
z"/>
<path fill="#74EEF0" opacity="1.000000" stroke="none" 
	d="
M722.007507,649.583679 
	C719.391052,645.447571 716.574707,641.025635 714.113770,636.414124 
	C711.462463,631.445740 709.015564,626.355957 706.757263,621.197510 
	C706.065125,619.616516 706.287842,617.635071 706.144775,615.427246 
	C711.453308,626.416504 716.708679,637.815491 722.007507,649.583679 
z"/>
<path fill="#524EE5" opacity="1.000000" stroke="none" 
	d="
M750.405884,811.901001 
	C749.935242,811.831543 749.913574,811.535828 749.898071,811.390137 
	C763.585999,811.193237 777.289429,811.141968 791.449951,811.150269 
	C790.030334,811.458008 788.154907,811.909973 786.276794,811.921265 
	C774.476990,811.992249 762.676697,811.965149 750.405884,811.901001 
z"/>
<path fill="#5EEDEE" opacity="1.000000" stroke="none" 
	d="
M766.189148,744.258911 
	C766.564392,743.942749 767.041016,743.969543 767.878784,744.004089 
	C770.148926,748.706299 772.057983,753.400696 773.971375,758.489502 
	C772.320862,756.383911 770.500427,753.974915 769.063049,751.355652 
	C767.899658,749.235657 767.197388,746.862610 766.189148,744.258911 
z"/>
<path fill="#74EEF0" opacity="1.000000" stroke="none" 
	d="
M792.898376,794.681091 
	C789.890808,789.278198 786.962219,783.500000 784.034302,777.317627 
	C787.015747,782.710876 789.996582,788.508301 792.898376,794.681091 
z"/>
<path fill="#8243E0" opacity="1.000000" stroke="none" 
	d="
M452.376984,793.898804 
	C451.956940,789.538818 456.126923,784.957703 462.433868,783.015259 
	C459.420502,786.591187 456.052307,790.181580 452.376984,793.898804 
z"/>
<path fill="#74EEF0" opacity="1.000000" stroke="none" 
	d="
M663.910156,527.671082 
	C660.654480,524.380981 656.494995,521.260986 656.987854,515.261841 
	C659.367004,519.050659 661.677429,523.173462 663.910156,527.671082 
z"/>
<path fill="#8243E0" opacity="1.000000" stroke="none" 
	d="
M625.029785,641.309692 
	C627.287476,645.014465 629.484253,649.095337 631.536743,653.603638 
	C631.392517,654.031128 630.930542,654.183228 630.930542,654.183228 
	C628.943298,650.017395 626.956055,645.851562 625.029785,641.309692 
z"/>
<path fill="#74EEF0" opacity="1.000000" stroke="none" 
	d="
M652.047119,503.585754 
	C650.059814,500.297699 648.027954,496.624786 645.986816,492.567200 
	C647.985901,495.855377 649.994141,499.528137 652.047119,503.585754 
z"/>
<path fill="#74EEF0" opacity="1.000000" stroke="none" 
	d="
M701.046143,604.589600 
	C696.520691,602.589111 695.284607,598.417847 695.023865,593.327881 
	C697.047363,596.683594 699.034119,600.449463 701.046143,604.589600 
z"/>
<path fill="#8243E0" opacity="1.000000" stroke="none" 
	d="
M620.041077,630.356812 
	C621.714539,633.102051 623.314026,636.215454 624.877930,639.736450 
	C623.217285,637.004333 621.592163,633.864685 620.041077,630.356812 
z"/>
<path fill="#8243E0" opacity="1.000000" stroke="none" 
	d="
M573.845703,522.571777 
	C574.578674,525.561646 575.262817,528.899963 575.931335,532.676941 
	C575.227661,532.374084 574.539612,531.632568 573.524597,530.888794 
	C573.397400,528.231079 573.597046,525.575684 573.845703,522.571777 
z"/>
<path fill="#7347E4" opacity="1.000000" stroke="none" 
	d="
M637.936829,669.442993 
	C642.812195,670.881042 642.002869,675.497192 642.933960,679.648254 
	C641.253967,676.640625 639.595154,673.229553 637.936829,669.442993 
z"/>
<path fill="#74EEF0" opacity="1.000000" stroke="none" 
	d="
M690.906372,587.417969 
	C690.893860,586.556396 690.927795,586.064819 690.987671,585.204102 
	C692.351379,587.295532 693.689026,589.755981 695.064453,592.586609 
	C693.719116,591.233826 692.335938,589.510864 690.906372,587.417969 
z"/>
<path fill="#74EEF0" opacity="1.000000" stroke="none" 
	d="
M784.037964,776.619995 
	C782.834900,775.257446 781.569214,773.533203 780.289307,771.479370 
	C781.508484,772.852661 782.741943,774.555420 784.037964,776.619995 
z"/>
<path fill="#7347E4" opacity="1.000000" stroke="none" 
	d="
M482.372223,762.879517 
	C481.146271,759.691101 483.274139,759.003845 486.125519,758.730591 
	C485.195251,760.131836 483.928741,761.449341 482.372223,762.879517 
z"/>
<path fill="#7347E4" opacity="1.000000" stroke="none" 
	d="
M630.935059,654.534424 
	C630.930542,654.183228 631.392517,654.031128 631.624268,653.960938 
	C632.553040,655.705627 633.250122,657.520508 633.908081,659.738892 
	C632.892517,658.390198 631.916077,656.637878 630.935059,654.534424 
z"/>
<path fill="#933EDD" opacity="1.000000" stroke="none" 
	d="
M513.473999,731.975037 
	C514.556885,730.430542 515.947754,728.787354 517.705200,727.149780 
	C516.641907,728.729004 515.211914,730.302612 513.473999,731.975037 
z"/>
<path fill="#8243E0" opacity="1.000000" stroke="none" 
	d="
M597.909424,581.453918 
	C598.705811,582.565491 599.524902,584.036682 600.175720,585.795288 
	C599.315613,584.659607 598.623840,583.236572 597.909424,581.453918 
z"/>
<path fill="#7347E4" opacity="1.000000" stroke="none" 
	d="
M635.035034,663.263184 
	C636.063721,664.687256 637.020691,666.475342 637.946594,668.649841 
	C636.931458,667.233276 635.947388,665.430176 635.035034,663.263184 
z"/>
<path fill="#74EEF0" opacity="1.000000" stroke="none" 
	d="
M653.888855,508.616028 
	C653.224121,507.538177 652.631287,506.101837 652.039124,504.291412 
	C652.680115,505.364044 653.320435,506.810760 653.888855,508.616028 
z"/>
<path fill="#74EEF0" opacity="1.000000" stroke="none" 
	d="
M794.925171,800.428772 
	C794.318787,799.418518 793.737000,798.071472 793.145142,796.383911 
	C793.739929,797.392883 794.344849,798.742432 794.925171,800.428772 
z"/>
<path fill="#74EEF0" opacity="1.000000" stroke="none" 
	d="
M706.038818,614.510254 
	C705.345276,613.786377 704.649963,612.718689 704.018433,611.292969 
	C704.733765,612.012207 705.385376,613.089355 706.038818,614.510254 
z"/>
<path fill="#74EEF0" opacity="1.000000" stroke="none" 
	d="
M704.057983,610.592896 
	C703.354248,609.792175 702.621216,608.630920 701.933594,607.084351 
	C702.662231,607.876770 703.345459,609.054565 704.057983,610.592896 
z"/>
<path fill="#74EEF0" opacity="1.000000" stroke="none" 
	d="
M724.016235,653.614746 
	C723.398865,652.855652 722.736389,651.756287 722.059204,650.302124 
	C722.686707,651.056396 723.328979,652.165405 724.016235,653.614746 
z"/>
<path fill="#8243E0" opacity="1.000000" stroke="none" 
	d="
M446.082367,570.170776 
	C446.042816,571.095581 445.860260,572.303894 445.432373,573.732056 
	C445.437805,572.786072 445.688568,571.620178 446.082367,570.170776 
z"/>
<path fill="#74EEF0" opacity="1.000000" stroke="none" 
	d="
M726.029907,657.639160 
	C725.415894,656.872192 724.743958,655.762939 724.058167,654.296265 
	C724.686890,655.058167 725.329407,656.177612 726.029907,657.639160 
z"/>
<path fill="#7347E4" opacity="1.000000" stroke="none" 
	d="
M642.929932,680.412659 
	C643.600708,681.174438 644.275513,682.292603 644.919800,683.771973 
	C644.237610,683.011841 643.585815,681.890442 642.929932,680.412659 
z"/>
<path fill="#933EDD" opacity="1.000000" stroke="none" 
	d="
M522.377808,722.954468 
	C522.557495,722.179077 523.046265,721.290405 523.798218,720.228027 
	C523.603271,720.983215 523.145020,721.912231 522.377808,722.954468 
z"/>
<path fill="#524EE5" opacity="1.000000" stroke="none" 
	d="
M667.966919,730.369141 
	C668.128662,730.637817 668.338989,731.232483 668.336304,731.916931 
	C668.087341,731.569519 668.051453,731.132324 667.966919,730.369141 
z"/>
<path fill="#933EDD" opacity="1.000000" stroke="none" 
	d="
M520.402710,725.032593 
	C520.563538,724.453613 521.023682,723.823120 521.790405,723.141479 
	C521.632080,723.720581 521.167114,724.350830 520.402710,725.032593 
z"/>
<path fill="#933EDD" opacity="1.000000" stroke="none" 
	d="
M510.320312,735.026245 
	C510.233154,734.803406 510.446350,734.563721 510.878235,734.201172 
	C510.909424,734.363098 510.750671,734.673462 510.320312,735.026245 
z"/>
<path fill="#74EEF0" opacity="1.000000" stroke="none" 
	d="
M690.907349,583.820557 
	C690.603271,583.893311 690.400024,583.639648 690.129028,583.133423 
	C690.333191,583.120422 690.648804,583.324829 690.907349,583.820557 
z"/>
<path fill="#933EDD" opacity="1.000000" stroke="none" 
	d="
M512.331055,733.031799 
	C512.236206,732.801514 512.446106,732.561951 512.879517,732.206360 
	C512.914734,732.372559 512.759033,732.683289 512.331055,733.031799 
z"/>
<path fill="#7347E4" opacity="1.000000" stroke="none" 
	d="
M520.335571,404.171051 
	C520.560791,404.329712 520.514832,404.517792 520.233704,404.764923 
	C519.948120,404.623260 519.970032,404.415436 520.335571,404.171051 
z"/>
<path fill="#74EEF0" opacity="1.000000" stroke="none" 
	d="
M795.821838,801.579102 
	C795.662903,801.619019 795.539673,801.474915 795.338257,801.215820 
	C795.522766,801.059998 795.721985,801.158081 795.821838,801.579102 
z"/>
<path fill="#9E3DD8" opacity="1.000000" stroke="none" 
	d="
M444.323456,801.911133 
	C444.277313,801.743164 444.477264,801.535156 444.859558,801.204468 
	C444.996552,801.406067 444.839111,801.669189 444.323456,801.911133 
z"/>
<path fill="#7347E4" opacity="1.000000" stroke="none" 
	d="
M634.042908,661.206543 
	C634.331238,661.139709 634.520813,661.379944 634.734436,661.875854 
	C634.539307,661.884338 634.267883,661.678345 634.042908,661.206543 
z"/>
<path fill="#933EDD" opacity="1.000000" stroke="none" 
	d="
M525.261719,719.025085 
	C525.218872,718.847473 525.418396,718.661316 525.809204,718.398193 
	C525.960815,718.636536 525.795349,718.868286 525.261719,719.025085 
z"/>
<path fill="#933EDD" opacity="1.000000" stroke="none" 
	d="
M524.296753,719.993042 
	C524.239624,719.803955 524.457825,719.572205 524.868408,719.194702 
	C524.884094,719.336304 524.721191,719.636780 524.296753,719.993042 
z"/>
<path fill="#74EEF0" opacity="1.000000" stroke="none" 
	d="
M701.890015,605.901489 
	C701.653931,605.925598 701.451111,605.652405 701.129089,605.154297 
	C701.314392,605.154358 701.618896,605.379211 701.890015,605.901489 
z"/>
<path fill="#933EDD" opacity="1.000000" stroke="none" 
	d="
M511.324280,734.028625 
	C511.233704,733.802612 511.445068,733.563171 511.877686,733.204834 
	C511.910797,733.368713 511.753235,733.678467 511.324280,734.028625 
z"/>
<path fill="#933EDD" opacity="1.000000" stroke="none" 
	d="
M507.308624,738.018188 
	C507.232574,737.805908 507.450439,737.566956 507.878784,737.194702 
	C507.904175,737.350525 507.741882,737.660583 507.308624,738.018188 
z"/>
<path fill="#933EDD" opacity="1.000000" stroke="none" 
	d="
M509.314636,736.023132 
	C509.233124,735.805542 509.448669,735.566467 509.878723,735.199463 
	C509.907043,735.358459 509.746490,735.668457 509.314636,736.023132 
z"/>
<path fill="#933EDD" opacity="1.000000" stroke="none" 
	d="
M508.310730,737.018433 
	C508.234650,736.806763 508.451752,736.568054 508.879333,736.196716 
	C508.904755,736.352112 508.742798,736.661255 508.310730,737.018433 
z"/>
<path fill="#5EEDEE" opacity="1.000000" stroke="none" 
	d="
M775.833252,760.661255 
	C775.621887,760.712708 775.465393,760.529053 775.226990,760.181641 
	C775.464233,760.007141 775.711914,760.143250 775.833252,760.661255 
z"/>
<path fill="#933EDD" opacity="1.000000" stroke="none" 
	d="
M519.336975,726.037720 
	C519.230652,725.797363 519.437073,725.553955 519.882019,725.208313 
	C519.922363,725.380676 519.765381,725.690186 519.336975,726.037720 
z"/>
<path fill="#933EDD" opacity="1.000000" stroke="none" 
	d="
M518.351562,727.040527 
	C518.232788,726.789856 518.434875,726.544250 518.881165,726.201233 
	C518.927673,726.379395 518.776733,726.693298 518.351562,727.040527 
z"/>
<path fill="#933EDD" opacity="1.000000" stroke="none" 
	d="
M502.420593,742.973511 
	C502.319641,742.769348 502.501221,742.532227 502.894287,742.176758 
	C502.931244,742.321533 502.797058,742.615601 502.420593,742.973511 
z"/>
<path fill="#933EDD" opacity="1.000000" stroke="none" 
	d="
M503.300293,742.012817 
	C503.225739,741.802490 503.444946,741.561646 503.875305,741.185547 
	C503.899567,741.340149 503.735413,741.650818 503.300293,742.012817 
z"/>
<path fill="#933EDD" opacity="1.000000" stroke="none" 
	d="
M504.300476,741.012695 
	C504.226440,740.802917 504.445618,740.562500 504.875427,740.186646 
	C504.899445,740.341003 504.735321,740.651306 504.300476,741.012695 
z"/>
<path fill="#933EDD" opacity="1.000000" stroke="none" 
	d="
M505.301208,740.012329 
	C505.227814,739.803406 505.446808,739.563354 505.875641,739.187439 
	C505.899414,739.341309 505.735474,739.651245 505.301208,740.012329 
z"/>
<path fill="#933EDD" opacity="1.000000" stroke="none" 
	d="
M506.300842,739.012695 
	C506.228546,738.804382 506.447601,738.565613 506.876709,738.192505 
	C506.899811,738.345947 506.734955,738.653931 506.300842,739.012695 
z"/>
<path fill="#524EE5" opacity="1.000000" stroke="none" 
	d="
M722.584473,810.791016 
	C692.936768,811.019470 662.934021,811.051086 632.467773,811.159424 
	C609.053162,811.123413 586.102051,811.011658 563.151001,810.896973 
	C560.157043,810.882019 557.163147,810.851685 553.824951,810.673096 
	C553.648254,810.336609 553.834106,810.176514 554.504395,810.043823 
	C577.086670,810.030334 599.202698,810.010620 621.318787,809.990906 
	C621.720886,809.388855 622.123047,808.786743 622.525146,808.184631 
	C615.246826,805.513062 616.666748,800.635681 617.898987,795.674011 
	C618.289246,794.102478 618.124207,792.343506 617.966492,790.693909 
	C617.306702,783.791809 616.553223,776.898682 615.818237,769.850525 
	C617.933716,769.406555 619.099487,769.316162 620.134949,768.900757 
	C621.143311,768.496216 622.018250,767.758911 622.951721,767.167725 
	C632.375366,767.204468 641.798950,767.241272 651.622009,767.383423 
	C651.686096,768.417603 651.611267,769.622192 650.970337,770.227356 
	C648.175049,772.867004 646.598511,775.461121 649.554504,779.083008 
	C650.106934,779.759827 649.878113,781.404419 649.525146,782.436584 
	C647.171570,789.318420 646.638306,795.984985 651.789917,802.310547 
	C648.825867,804.050232 646.181458,805.602295 643.537048,807.154419 
	C643.661621,807.622192 643.786255,808.089966 643.910828,808.557739 
	C649.431091,809.036621 654.947815,809.874939 660.472229,809.928955 
	C679.086975,810.111145 697.704529,809.997498 716.320801,810.049255 
	C718.290833,810.054688 720.260010,810.404236 722.584473,810.791016 
z"/>
<path fill="#5EEDEE" opacity="1.000000" stroke="none" 
	d="
M685.208496,676.434204 
	C686.838867,676.091003 688.519104,676.091003 691.628296,676.091003 
	C691.421082,678.924561 691.146118,682.684753 690.824585,686.840576 
	C688.938171,683.750000 687.098267,680.263733 685.208496,676.434204 
z"/>
<path fill="#5EEDEE" opacity="1.000000" stroke="none" 
	d="
M691.936523,690.416748 
	C693.235474,692.499695 694.572083,694.956360 695.901611,697.801147 
	C694.587769,695.722900 693.281006,693.256714 691.936523,690.416748 
z"/>
<path fill="#5EEDEE" opacity="1.000000" stroke="none" 
	d="
M690.784790,687.348022 
	C691.190002,687.804260 691.550659,688.604065 691.929077,689.740906 
	C691.544556,689.282471 691.142395,688.487061 690.784790,687.348022 
z"/>
<path fill="#5EEDEE" opacity="1.000000" stroke="none" 
	d="
M689.683350,603.135498 
	C688.854492,602.316833 687.940674,601.811890 687.779236,601.129028 
	C687.426819,599.638245 687.456970,598.057007 687.330811,596.512756 
	C689.067871,597.288574 691.521606,597.637329 692.317993,598.973633 
	C692.970642,600.068909 691.650146,602.339844 691.204346,604.089661 
	C690.782776,603.849243 690.361206,603.608826 689.683350,603.135498 
z"/>
<path fill="#7347E4" opacity="1.000000" stroke="none" 
	d="
M496.402771,609.101440 
	C494.725250,613.701599 492.739563,618.403198 490.469910,623.346069 
	C489.276245,617.609741 490.754333,612.613098 496.402771,609.101440 
z"/>
<path fill="#7347E4" opacity="1.000000" stroke="none" 
	d="
M501.703247,597.075378 
	C501.527527,598.188232 501.039581,599.385620 500.298523,600.787964 
	C500.493927,599.715210 500.942474,598.437561 501.703247,597.075378 
z"/>
<path fill="#7347E4" opacity="1.000000" stroke="none" 
	d="
M499.146790,603.172424 
	C498.887512,604.146606 498.339325,605.252991 497.501465,606.522705 
	C497.760498,605.558899 498.309204,604.431763 499.146790,603.172424 
z"/>
<path fill="#7347E4" opacity="1.000000" stroke="none" 
	d="
M489.757263,624.198242 
	C489.674011,625.117493 489.260803,626.197144 488.558716,627.486206 
	C488.655640,626.583313 489.041504,625.471008 489.757263,624.198242 
z"/>
<path fill="#7347E4" opacity="1.000000" stroke="none" 
	d="
M487.305176,630.228699 
	C487.264709,630.790222 486.978088,631.522217 486.433136,632.432556 
	C486.469513,631.873657 486.764252,631.136414 487.305176,630.228699 
z"/>
<path fill="#7347E4" opacity="1.000000" stroke="none" 
	d="
M485.536133,634.203674 
	C485.462769,634.800720 485.108032,635.555725 484.477234,636.486694 
	C484.552338,635.895691 484.903534,635.128662 485.536133,634.203674 
z"/>
<path fill="#7347E4" opacity="1.000000" stroke="none" 
	d="
M483.427246,639.179626 
	C483.360382,639.747925 483.032623,640.477417 482.430786,641.368286 
	C482.493225,640.800049 482.829803,640.070435 483.427246,639.179626 
z"/>
<path fill="#524EE5" opacity="1.000000" stroke="none" 
	d="
M566.073547,508.526672 
	C567.697144,508.106873 569.501526,507.950287 571.305908,507.793640 
	C571.240723,509.740662 571.175476,511.687683 570.873657,513.908447 
	C569.176147,512.384705 567.715271,510.587311 566.073547,508.526672 
z"/>
<path fill="#6748E3" opacity="1.000000" stroke="none" 
	d="
M531.583984,528.513916 
	C531.895264,527.214294 532.506104,525.733704 533.446350,524.130127 
	C533.145081,525.449036 532.514343,526.890930 531.583984,528.513916 
z"/>
<path fill="#6748E3" opacity="1.000000" stroke="none" 
	d="
M529.439575,534.274048 
	C529.599548,533.121338 530.034790,531.726196 530.810059,530.170715 
	C530.671692,531.350830 530.193298,532.691223 529.439575,534.274048 
z"/>
<path fill="#8243E0" opacity="1.000000" stroke="none" 
	d="
M571.826416,516.484375 
	C572.306335,516.376099 572.844299,516.591797 573.642761,516.932251 
	C573.770264,517.788391 573.637146,518.519775 573.380615,519.499756 
	C572.799500,518.768433 572.341919,517.788391 571.826416,516.484375 
z"/>
<path fill="#6748E3" opacity="1.000000" stroke="none" 
	d="
M526.496216,540.514648 
	C526.556396,539.907349 526.900452,539.128174 527.525146,538.184326 
	C527.463928,538.794006 527.122009,539.568359 526.496216,540.514648 
z"/>
<path fill="#6748E3" opacity="1.000000" stroke="none" 
	d="
M536.350586,517.870239 
	C536.319763,517.428589 536.508545,516.780090 536.951965,516.063477 
	C536.994507,516.551392 536.782410,517.107483 536.350586,517.870239 
z"/>
<path fill="#484FE6" opacity="1.000000" stroke="none" 
	d="
M640.652832,623.554810 
	C641.017151,622.821411 641.412476,622.305237 641.807861,621.789124 
	C642.050110,622.084167 642.292358,622.379211 642.534668,622.674255 
	C641.917725,623.040222 641.300781,623.406189 640.652832,623.554810 
z"/>
<path fill="#933EDD" opacity="1.000000" stroke="none" 
	d="
M407.414978,675.398804 
	C407.545135,676.126953 407.419586,676.771423 407.294037,677.415894 
	C406.752563,677.203552 406.211121,676.991211 405.669678,676.778809 
	C406.166229,676.290955 406.662750,675.803040 407.414978,675.398804 
z"/>
<path fill="#6748E3" opacity="1.000000" stroke="none" 
	d="
M622.495850,767.071533 
	C622.018250,767.758911 621.143311,768.496216 620.134949,768.900757 
	C619.099487,769.316162 617.933716,769.406555 615.818237,769.850525 
	C616.553223,776.898682 617.306702,783.791809 617.966492,790.693909 
	C618.124207,792.343506 618.289246,794.102478 617.898987,795.674011 
	C616.666748,800.635681 615.246826,805.513062 622.525146,808.184631 
	C622.123047,808.786743 621.720886,809.388855 621.318787,809.990906 
	C599.202698,810.010620 577.086670,810.030334 554.503662,809.646362 
	C554.358704,802.293701 555.108276,795.330200 554.873657,788.400024 
	C554.668213,782.329956 554.114929,776.616455 560.977844,773.656799 
	C561.277405,773.527710 561.315552,772.792664 561.387390,772.589294 
	C560.513550,770.952087 559.755615,769.532043 558.997681,768.111938 
	C563.935303,767.670166 568.870605,766.882996 573.810974,766.850220 
	C589.886292,766.743408 605.963440,766.912476 622.495850,767.071533 
z"/>
<path fill="#7347E4" opacity="1.000000" stroke="none" 
	d="
M558.580322,768.052429 
	C559.755615,769.532043 560.513550,770.952087 561.387390,772.589294 
	C561.315552,772.792664 561.277405,773.527710 560.977844,773.656799 
	C554.114929,776.616455 554.668213,782.329956 554.873657,788.400024 
	C555.108276,795.330200 554.358704,802.293701 554.037476,809.640137 
	C553.834106,810.176514 553.648254,810.336609 553.373291,810.662231 
	C536.379944,810.823486 519.493896,810.840210 502.114014,810.812988 
	C512.795410,786.368835 531.082092,771.368774 558.580322,768.052429 
z"/>
<path fill="#8B40DF" opacity="1.000000" stroke="none" 
	d="
M427.326416,616.876404 
	C427.510864,616.124146 427.985260,615.232361 428.706635,614.150879 
	C428.507843,614.886475 428.062103,615.811707 427.326416,616.876404 
z"/>
<path fill="#7347E4" opacity="1.000000" stroke="none" 
	d="
M498.017639,731.548584 
	C498.317169,732.691101 498.317169,733.878418 498.317169,735.065735 
	C497.624725,734.952271 496.932312,734.838745 496.239868,734.725281 
	C496.732635,733.681274 497.225372,732.637329 498.017639,731.548584 
z"/>
</svg>